<?xml version="1.0" standalone="no"?><!DOCTYPE svg PUBLIC "-//W3C//DTD SVG 1.1//EN" "http://www.w3.org/Graphics/SVG/1.1/DTD/svg11.dtd"><svg t="1547360688278" class="icon" style="" viewBox="0 0 1024 1024" version="1.1" xmlns="http://www.w3.org/2000/svg" p-id="7001" xmlns:xlink="http://www.w3.org/1999/xlink" width="200" height="200"><defs><style type="text/css"></style></defs><path d="M896 320H128a64 64 0 0 0-64 64v384a64 64 0 0 0 64 64h768a64 64 0 0 0 64-64V384a64 64 0 0 0-64-64z m-768 64h256v384H128V384z m768 0v384H448V384h448zM384 576a32 32 0 1 1 0 64 32 32 0 0 1 0-64z m256 0a32 32 0 1 1 0 64 32 32 0 0 1 0-64z m128 0a32 32 0 1 1 0 64 32 32 0 0 1 0-64zM576 160h128a32 32 0 0 1 0 64h-128a32 32 0 0 1 0-64z m-256 0h128a32 32 0 0 1 0 64h-128a32 32 0 0 1 0-64z" p-id="7002"></path></svg>
