<?xml version="1.0" standalone="no"?><!DOCTYPE svg PUBLIC "-//W3C//DTD SVG 1.1//EN" "http://www.w3.org/Graphics/SVG/1.1/DTD/svg11.dtd"><svg t="1547360688278" class="icon" style="" viewBox="0 0 1024 1024" version="1.1" xmlns="http://www.w3.org/2000/svg" p-id="7101" xmlns:xlink="http://www.w3.org/1999/xlink" width="200" height="200"><defs><style type="text/css"></style></defs><path d="M512 64a448 448 0 1 0 0 896 448 448 0 0 0 0-896z m0 128a64 64 0 1 1 0 128 64 64 0 0 1 0-128z m0 256a64 64 0 1 1 0 128 64 64 0 0 1 0-128z m0 256a64 64 0 1 1 0 128 64 64 0 0 1 0-128zM800 256a64 64 0 1 1 0 128 64 64 0 0 1 0-128z m-192 0a64 64 0 1 1 0 128 64 64 0 0 1 0-128zM416 256a64 64 0 1 1 0 128 64 64 0 0 1 0-128zM224 256a64 64 0 1 1 0 128 64 64 0 0 1 0-128z m-64 192a64 64 0 1 1 0 128 64 64 0 0 1 0-128z m640 0a64 64 0 1 1 0 128 64 64 0 0 1 0-128z m-64 192a64 64 0 1 1 0 128 64 64 0 0 1 0-128z m-576 0a64 64 0 1 1 0 128 64 64 0 0 1 0-128z" p-id="7102"></path></svg>
